STARTFONT 2.1
FONT -sun-helmetcondensed-medium-r-semicondensed--14-140-75-75-p-63-adobe-fontspecific
SIZE 14 75 75
FONTBOUNDINGBOX 15 17 -2 -3

STARTPROPERTIES 28
FOUNDRY "sun"
FAMILY_NAME "helmetcondensed"
WEIGHT_NAME "medium"
SLANT "r"
SETWIDTH_NAME "semicondensed"
ADD_STYLE_NAME ""
PIXEL_SIZE 15
POINT_SIZE 140
RESOLUTION_X 75
RESOLUTION_Y 75
SPACING "p"
AVERAGE_WIDTH 63
CHARSET_REGISTRY "adobe"
CHARSET_ENCODING "fontspecific"
COPYRIGHT "© 1999 Sun Microsystems, Inc."
RAW_PIXELSIZE 1000
RAW_POINTSIZE 964
RAW_ASCENT 935
RAW_DESCENT 238
RAW_AVERAGE_WIDTH 4358
FACE_NAME "HelmetCondensedNormaledB5"
_XMBDFED_INFO "Edited with xmbdfed 2.4."
WEIGHT 10
X_HEIGHT -1
QUAD_WIDTH 8
DEFAULT_CHAR 4
FONT_DESCENT 3
FONT_ASCENT 14
ENDPROPERTIES

CHARS 210

STARTCHAR char32
ENCODING 32
SWIDTH 24 0
DWIDTH 4 0
BBX 0 0 0 0
BITMAP
ENDCHAR

STARTCHAR char33
ENCODING 33
SWIDTH 18 0
DWIDTH 3 0
BBX 1 10 1 0
BITMAP
80
80
80
80
80
80
80
80
00
80
ENDCHAR

STARTCHAR char34
ENCODING 34
SWIDTH 24 0
DWIDTH 4 0
BBX 3 3 1 7
BITMAP
A0
A0
A0
ENDCHAR

STARTCHAR char35
ENCODING 35
SWIDTH 49 0
DWIDTH 8 0
BBX 7 11 0 0
BITMAP
12
14
24
7E
24
24
24
FE
28
48
48
ENDCHAR

STARTCHAR char36
ENCODING 36
SWIDTH 43 0
DWIDTH 7 0
BBX 6 12 0 -1
BITMAP
10
78
D4
90
D0
70
1C
14
94
D4
38
10
ENDCHAR

STARTCHAR char37
ENCODING 37
SWIDTH 5 0
DWIDTH 11 0
BBX 10 10 0 0
BITMAP
6100
9100
9200
9380
9740
9A40
6A40
1240
1340
1180
ENDCHAR

STARTCHAR char38
ENCODING 38
SWIDTH 49 0
DWIDTH 8 0
BBX 7 10 0 0
BITMAP
30
48
48
30
30
52
8A
8C
84
7A
ENDCHAR

STARTCHAR char39
ENCODING 39
SWIDTH 12 0
DWIDTH 2 0
BBX 2 4 0 7
BITMAP
40
80
80
C0
ENDCHAR

STARTCHAR char40
ENCODING 40
SWIDTH 18 0
DWIDTH 3 0
BBX 2 13 1 -2
BITMAP
40
40
80
80
80
80
80
80
80
80
40
40
40
ENDCHAR

STARTCHAR char41
ENCODING 41
SWIDTH 18 0
DWIDTH 3 0
BBX 3 13 0 -2
BITMAP
80
40
40
20
20
20
20
20
20
40
40
40
80
ENDCHAR

STARTCHAR char42
ENCODING 42
SWIDTH 30 0
DWIDTH 5 0
BBX 4 4 0 6
BITMAP
20
70
50
50
ENDCHAR

STARTCHAR char43
ENCODING 43
SWIDTH 43 0
DWIDTH 7 0
BBX 7 6 0 1
BITMAP
10
10
FE
10
10
10
ENDCHAR

STARTCHAR char44
ENCODING 44
SWIDTH 12 0
DWIDTH 2 0
BBX 1 3 1 -2
BITMAP
80
80
80
ENDCHAR

STARTCHAR char45
ENCODING 45
SWIDTH 30 0
DWIDTH 5 0
BBX 4 1 0 3
BITMAP
F0
ENDCHAR

STARTCHAR char46
ENCODING 46
SWIDTH 12 0
DWIDTH 2 0
BBX 1 1 1 0
BITMAP
80
ENDCHAR

STARTCHAR char47
ENCODING 47
SWIDTH 24 0
DWIDTH 4 0
BBX 4 10 0 0
BITMAP
10
10
10
20
20
20
40
40
40
40
ENDCHAR

STARTCHAR char48
ENCODING 48
SWIDTH 43 0
DWIDTH 7 0
BBX 5 10 1 0
BITMAP
70
98
88
88
88
88
88
88
98
70
ENDCHAR

STARTCHAR char49
ENCODING 49
SWIDTH 43 0
DWIDTH 7 0
BBX 3 10 1 0
BITMAP
20
E0
20
20
20
20
20
20
20
20
ENDCHAR

STARTCHAR char50
ENCODING 50
SWIDTH 43 0
DWIDTH 7 0
BBX 5 10 1 0
BITMAP
F0
88
88
08
10
20
40
80
80
F8
ENDCHAR

STARTCHAR char51
ENCODING 51
SWIDTH 43 0
DWIDTH 7 0
BBX 6 10 0 0
BITMAP
70
48
08
08
30
08
08
4C
48
70
ENDCHAR

STARTCHAR char52
ENCODING 52
SWIDTH 43 0
DWIDTH 7 0
BBX 6 10 0 0
BITMAP
08
18
28
28
48
48
FC
08
08
08
ENDCHAR

STARTCHAR char53
ENCODING 53
SWIDTH 43 0
DWIDTH 7 0
BBX 5 10 1 0
BITMAP
F8
80
80
F0
98
08
08
08
98
F0
ENDCHAR

STARTCHAR char54
ENCODING 54
SWIDTH 43 0
DWIDTH 7 0
BBX 5 10 1 0
BITMAP
70
88
80
F0
D0
88
88
88
88
70
ENDCHAR

STARTCHAR char55
ENCODING 55
SWIDTH 43 0
DWIDTH 7 0
BBX 5 10 1 0
BITMAP
F8
10
10
20
20
20
40
40
40
40
ENDCHAR

STARTCHAR char56
ENCODING 56
SWIDTH 43 0
DWIDTH 7 0
BBX 5 10 1 0
BITMAP
F0
90
90
90
70
90
98
98
90
70
ENDCHAR

STARTCHAR char57
ENCODING 57
SWIDTH 43 0
DWIDTH 7 0
BBX 6 10 0 0
BITMAP
78
CC
84
84
8C
7C
04
0C
C8
78
ENDCHAR

STARTCHAR char58
ENCODING 58
SWIDTH 18 0
DWIDTH 3 0
BBX 1 7 1 0
BITMAP
80
00
00
00
00
00
80
ENDCHAR

STARTCHAR char59
ENCODING 59
SWIDTH 18 0
DWIDTH 3 0
BBX 1 9 1 -2
BITMAP
80
00
00
00
00
00
80
80
80
ENDCHAR

STARTCHAR char60
ENCODING 60
SWIDTH 55 0
DWIDTH 9 0
BBX 8 7 0 0
BITMAP
03
1C
60
C0
30
0C
03
ENDCHAR

STARTCHAR char61
ENCODING 61
SWIDTH 43 0
DWIDTH 7 0
BBX 7 3 0 3
BITMAP
FE
00
FE
ENDCHAR

STARTCHAR char62
ENCODING 62
SWIDTH 55 0
DWIDTH 9 0
BBX 7 7 1 0
BITMAP
C0
30
0C
06
18
60
80
ENDCHAR

STARTCHAR char63
ENCODING 63
SWIDTH 36 0
DWIDTH 6 0
BBX 5 10 0 0
BITMAP
70
88
08
08
10
20
20
20
00
20
ENDCHAR

STARTCHAR char64
ENCODING 64
SWIDTH 36 0
DWIDTH 16 0
BBX 11 11 2 0
BITMAP
0F00
3180
4040
4FA0
9120
A120
A340
B240
5F80
20C0
1F00
ENDCHAR

STARTCHAR char65
ENCODING 65
SWIDTH 43 0
DWIDTH 7 0
BBX 6 10 0 0
BITMAP
10
30
28
28
48
48
78
84
84
84
ENDCHAR

STARTCHAR char66
ENCODING 66
SWIDTH 43 0
DWIDTH 7 0
BBX 5 10 1 0
BITMAP
F0
88
88
88
F0
88
88
88
88
F0
ENDCHAR

STARTCHAR char67
ENCODING 67
SWIDTH 43 0
DWIDTH 7 0
BBX 6 10 0 0
BITMAP
3C
44
84
80
80
80
80
C4
44
38
ENDCHAR

STARTCHAR char68
ENCODING 68
SWIDTH 49 0
DWIDTH 8 0
BBX 6 10 1 0
BITMAP
F0
88
84
84
84
84
84
8C
88
F0
ENDCHAR

STARTCHAR char69
ENCODING 69
SWIDTH 36 0
DWIDTH 6 0
BBX 5 10 1 0
BITMAP
F8
80
80
80
F0
80
80
80
80
F8
ENDCHAR

STARTCHAR char70
ENCODING 70
SWIDTH 36 0
DWIDTH 6 0
BBX 5 10 1 0
BITMAP
F8
80
80
80
F0
80
80
80
80
80
ENDCHAR

STARTCHAR char71
ENCODING 71
SWIDTH 49 0
DWIDTH 8 0
BBX 7 10 0 0
BITMAP
7C
C4
C2
80
80
9E
82
82
46
3A
ENDCHAR

STARTCHAR char72
ENCODING 72
SWIDTH 49 0
DWIDTH 8 0
BBX 6 10 1 0
BITMAP
84
84
84
84
FC
84
84
84
84
84
ENDCHAR

STARTCHAR char73
ENCODING 73
SWIDTH 18 0
DWIDTH 3 0
BBX 1 10 1 0
BITMAP
80
80
80
80
80
80
80
80
80
80
ENDCHAR

STARTCHAR char74
ENCODING 74
SWIDTH 30 0
DWIDTH 5 0
BBX 4 10 0 0
BITMAP
10
10
10
10
10
10
10
90
90
60
ENDCHAR

STARTCHAR char75
ENCODING 75
SWIDTH 43 0
DWIDTH 7 0
BBX 6 10 1 0
BITMAP
88
98
B0
A0
E0
A0
90
90
88
88
ENDCHAR

STARTCHAR char76
ENCODING 76
SWIDTH 36 0
DWIDTH 6 0
BBX 5 10 1 0
BITMAP
80
80
80
80
80
80
80
80
80
F8
ENDCHAR

STARTCHAR char77
ENCODING 77
SWIDTH 61 0
DWIDTH 10 0
BBX 8 10 1 0
BITMAP
C3
C3
C5
C5
A5
A5
A9
99
99
91
ENDCHAR

STARTCHAR char78
ENCODING 78
SWIDTH 49 0
DWIDTH 8 0
BBX 6 10 1 0
BITMAP
84
C4
C4
A4
A4
94
94
8C
8C
8C
ENDCHAR

STARTCHAR char79
ENCODING 79
SWIDTH 49 0
DWIDTH 8 0
BBX 7 10 0 0
BITMAP
3C
46
82
82
82
82
82
82
44
78
ENDCHAR

STARTCHAR char80
ENCODING 80
SWIDTH 36 0
DWIDTH 6 0
BBX 5 10 1 0
BITMAP
F0
88
88
88
F0
80
80
80
80
80
ENDCHAR

STARTCHAR char81
ENCODING 81
SWIDTH 49 0
DWIDTH 8 0
BBX 7 11 0 -1
BITMAP
7C
C6
82
82
82
82
82
C2
4C
7E
02
ENDCHAR

STARTCHAR char82
ENCODING 82
SWIDTH 43 0
DWIDTH 7 0
BBX 5 10 1 0
BITMAP
F0
88
88
88
F0
90
88
88
88
88
ENDCHAR

STARTCHAR char83
ENCODING 83
SWIDTH 43 0
DWIDTH 7 0
BBX 6 10 0 0
BITMAP
38
44
40
40
30
08
04
44
44
38
ENDCHAR

STARTCHAR char84
ENCODING 84
SWIDTH 36 0
DWIDTH 6 0
BBX 6 10 0 0
BITMAP
FC
20
20
20
20
20
20
20
20
20
ENDCHAR

STARTCHAR char85
ENCODING 85
SWIDTH 49 0
DWIDTH 8 0
BBX 6 10 1 0
BITMAP
84
84
84
84
84
84
84
84
8C
78
ENDCHAR

STARTCHAR char86
ENCODING 86
SWIDTH 43 0
DWIDTH 7 0
BBX 6 10 0 0
BITMAP
84
84
44
44
48
48
28
28
30
10
ENDCHAR

STARTCHAR char87
ENCODING 87
SWIDTH 61 0
DWIDTH 10 0
BBX 10 10 0 0
BITMAP
8880
8C80
8C80
4C80
5480
5280
5300
5300
5300
2300
ENDCHAR

STARTCHAR char88
ENCODING 88
SWIDTH 36 0
DWIDTH 6 0
BBX 6 10 0 0
BITMAP
84
4C
48
30
30
30
28
48
C4
84
ENDCHAR

STARTCHAR char89
ENCODING 89
SWIDTH 36 0
DWIDTH 6 0
BBX 6 10 0 0
BITMAP
84
44
48
28
38
10
10
10
10
10
ENDCHAR

STARTCHAR char90
ENCODING 90
SWIDTH 30 0
DWIDTH 5 0
BBX 5 10 0 0
BITMAP
F8
08
10
10
20
20
40
40
80
F8
ENDCHAR

STARTCHAR char91
ENCODING 91
SWIDTH 18 0
DWIDTH 3 0
BBX 2 13 1 -2
BITMAP
C0
80
80
80
80
80
80
80
80
80
80
80
C0
ENDCHAR

STARTCHAR char92
ENCODING 92
SWIDTH 24 0
DWIDTH 4 0
BBX 4 11 0 0
BITMAP
80
80
80
40
40
40
20
20
20
10
10
ENDCHAR

STARTCHAR char93
ENCODING 93
SWIDTH 18 0
DWIDTH 3 0
BBX 2 13 0 -2
BITMAP
C0
40
40
40
40
40
40
40
40
40
40
40
C0
ENDCHAR

STARTCHAR char94
ENCODING 94
SWIDTH 0 0
DWIDTH 0 0
BBX 4 2 -2 11
BITMAP
60
90
ENDCHAR

STARTCHAR char95
ENCODING 95
SWIDTH 55 0
DWIDTH 9 0
BBX 8 1 0 -2
BITMAP
FF
ENDCHAR

STARTCHAR char96
ENCODING 96
SWIDTH 0 0
DWIDTH 0 0
BBX 3 2 -2 8
BITMAP
40
40
ENDCHAR

STARTCHAR char97
ENCODING 97
SWIDTH 36 0
DWIDTH 6 0
BBX 5 8 0 0
BITMAP
70
C8
08
18
68
88
88
78
ENDCHAR

STARTCHAR char98
ENCODING 98
SWIDTH 36 0
DWIDTH 6 0
BBX 4 10 1 0
BITMAP
80
80
E0
90
90
90
90
90
90
E0
ENDCHAR

STARTCHAR char99
ENCODING 99
SWIDTH 30 0
DWIDTH 5 0
BBX 5 8 0 0
BITMAP
70
C8
88
80
80
80
C8
70
ENDCHAR

STARTCHAR char100
ENCODING 100
SWIDTH 36 0
DWIDTH 6 0
BBX 5 10 0 0
BITMAP
08
08
78
48
88
88
88
88
C8
78
ENDCHAR

STARTCHAR char101
ENCODING 101
SWIDTH 36 0
DWIDTH 6 0
BBX 5 8 0 0
BITMAP
70
88
88
F8
80
80
C8
70
ENDCHAR

STARTCHAR char102
ENCODING 102
SWIDTH 18 0
DWIDTH 3 0
BBX 3 10 0 0
BITMAP
60
40
E0
40
40
40
40
40
40
40
ENDCHAR

STARTCHAR char103
ENCODING 103
SWIDTH 36 0
DWIDTH 6 0
BBX 5 11 0 -3
BITMAP
78
C8
88
88
88
88
C8
78
08
48
70
ENDCHAR

STARTCHAR char104
ENCODING 104
SWIDTH 36 0
DWIDTH 6 0
BBX 4 10 1 0
BITMAP
80
80
E0
90
90
90
90
90
90
90
ENDCHAR

STARTCHAR char105
ENCODING 105
SWIDTH 12 0
DWIDTH 2 0
BBX 1 10 1 0
BITMAP
80
00
80
80
80
80
80
80
80
80
ENDCHAR

STARTCHAR char106
ENCODING 106
SWIDTH 12 0
DWIDTH 2 0
BBX 2 13 0 -3
BITMAP
40
00
40
40
40
40
40
40
40
40
40
40
80
ENDCHAR

STARTCHAR char107
ENCODING 107
SWIDTH 30 0
DWIDTH 5 0
BBX 4 10 1 0
BITMAP
80
80
90
A0
A0
C0
A0
A0
90
90
ENDCHAR

STARTCHAR char108
ENCODING 108
SWIDTH 12 0
DWIDTH 2 0
BBX 1 10 1 0
BITMAP
80
80
80
80
80
80
80
80
80
80
ENDCHAR

STARTCHAR char109
ENCODING 109
SWIDTH 61 0
DWIDTH 10 0
BBX 8 8 0 0
BITMAP
B7
C9
89
89
89
89
89
89
ENDCHAR

STARTCHAR char110
ENCODING 110
SWIDTH 36 0
DWIDTH 6 0
BBX 4 8 1 0
BITMAP
E0
90
90
90
90
90
90
90
ENDCHAR

STARTCHAR char111
ENCODING 111
SWIDTH 36 0
DWIDTH 6 0
BBX 5 8 0 0
BITMAP
70
48
88
88
88
88
88
70
ENDCHAR

STARTCHAR char112
ENCODING 112
SWIDTH 36 0
DWIDTH 6 0
BBX 4 11 1 -3
BITMAP
E0
90
90
90
90
90
90
E0
80
80
80
ENDCHAR

STARTCHAR char113
ENCODING 113
SWIDTH 36 0
DWIDTH 6 0
BBX 5 11 0 -3
BITMAP
78
48
88
88
88
88
C8
78
08
08
08
ENDCHAR

STARTCHAR char114
ENCODING 114
SWIDTH 24 0
DWIDTH 4 0
BBX 2 8 1 0
BITMAP
C0
80
80
80
80
80
80
80
ENDCHAR

STARTCHAR char115
ENCODING 115
SWIDTH 30 0
DWIDTH 5 0
BBX 5 8 0 0
BITMAP
70
98
80
60
10
08
88
70
ENDCHAR

STARTCHAR char116
ENCODING 116
SWIDTH 18 0
DWIDTH 3 0
BBX 3 10 0 0
BITMAP
40
40
E0
40
40
40
40
40
40
60
ENDCHAR

STARTCHAR char117
ENCODING 117
SWIDTH 36 0
DWIDTH 6 0
BBX 4 8 1 0
BITMAP
90
90
90
90
90
90
90
70
ENDCHAR

STARTCHAR char118
ENCODING 118
SWIDTH 30 0
DWIDTH 5 0
BBX 5 8 0 0
BITMAP
88
88
90
50
50
50
60
20
ENDCHAR

STARTCHAR char119
ENCODING 119
SWIDTH 49 0
DWIDTH 8 0
BBX 7 8 0 0
BITMAP
92
92
9A
5A
5A
6A
6C
24
ENDCHAR

STARTCHAR char120
ENCODING 120
SWIDTH 30 0
DWIDTH 5 0
BBX 5 8 0 0
BITMAP
88
50
50
20
20
50
D0
88
ENDCHAR

STARTCHAR char121
ENCODING 121
SWIDTH 30 0
DWIDTH 5 0
BBX 5 11 0 -3
BITMAP
88
88
50
50
50
50
60
20
20
40
C0
ENDCHAR

STARTCHAR char122
ENCODING 122
SWIDTH 30 0
DWIDTH 5 0
BBX 4 8 0 0
BITMAP
F0
10
20
20
40
40
40
F0
ENDCHAR

STARTCHAR char123
ENCODING 123
SWIDTH 30 0
DWIDTH 5 0
BBX 3 13 1 -3
BITMAP
60
40
40
40
40
80
80
40
40
40
40
40
20
ENDCHAR

STARTCHAR char124
ENCODING 124
SWIDTH 24 0
DWIDTH 4 0
BBX 1 11 1 0
BITMAP
80
80
80
80
80
80
80
80
80
80
80
ENDCHAR

STARTCHAR char125
ENCODING 125
SWIDTH 30 0
DWIDTH 5 0
BBX 3 13 1 -3
BITMAP
C0
40
40
40
40
20
20
40
40
40
40
40
80
ENDCHAR

STARTCHAR char126
ENCODING 126
SWIDTH 0 0
DWIDTH 0 0
BBX 4 2 -2 11
BITMAP
F0
90
ENDCHAR

STARTCHAR char128
ENCODING 128
SWIDTH 43 0
DWIDTH 7 0
BBX 7 10 -1 0
BITMAP
1E
22
42
7C
FC
40
40
62
22
1C
ENDCHAR

STARTCHAR char130
ENCODING 130
SWIDTH 12 0
DWIDTH 2 0
BBX 1 3 1 -2
BITMAP
80
80
80
ENDCHAR

STARTCHAR char131
ENCODING 131
SWIDTH 0 0
DWIDTH 0 0
BBX 4 2 -2 11
BITMAP
60
90
ENDCHAR

STARTCHAR char132
ENCODING 132
SWIDTH 24 0
DWIDTH 4 0
BBX 3 3 1 -2
BITMAP
A0
A0
A0
ENDCHAR

STARTCHAR char133
ENCODING 133
SWIDTH 36 0
DWIDTH 16 0
BBX 10 1 2 0
BITMAP
8840
ENDCHAR

STARTCHAR char134
ENCODING 134
SWIDTH 36 0
DWIDTH 6 0
BBX 6 12 0 -2
BITMAP
10
10
10
FC
10
10
10
10
10
10
10
10
ENDCHAR

STARTCHAR char135
ENCODING 135
SWIDTH 29 0
DWIDTH 15 0
BBX 0 0 0 0
BITMAP
ENDCHAR

STARTCHAR char136
ENCODING 136
SWIDTH 0 0
DWIDTH 0 0
BBX 4 2 -2 8
BITMAP
60
90
ENDCHAR

STARTCHAR char137
ENCODING 137
SWIDTH 29 0
DWIDTH 15 0
BBX 0 0 0 0
BITMAP
ENDCHAR

STARTCHAR char139
ENCODING 139
SWIDTH 30 0
DWIDTH 5 0
BBX 3 4 1 2
BITMAP
60
C0
C0
60
ENDCHAR

STARTCHAR char140
ENCODING 140
SWIDTH 5 0
DWIDTH 11 0
BBX 10 10 0 0
BITMAP
7C00
C400
8400
8400
8780
8400
8400
8400
4C00
3FC0
ENDCHAR

STARTCHAR char142
ENCODING 142
SWIDTH 29 0
DWIDTH 15 0
BBX 0 0 0 0
BITMAP
ENDCHAR

STARTCHAR char144
ENCODING 144
SWIDTH 29 0
DWIDTH 15 0
BBX 0 0 0 0
BITMAP
ENDCHAR

STARTCHAR char145
ENCODING 145
SWIDTH 12 0
DWIDTH 2 0
BBX 1 3 1 7
BITMAP
80
80
80
ENDCHAR

STARTCHAR char146
ENCODING 146
SWIDTH 12 0
DWIDTH 2 0
BBX 1 3 1 7
BITMAP
80
80
80
ENDCHAR

STARTCHAR char147
ENCODING 147
SWIDTH 24 0
DWIDTH 4 0
BBX 3 3 1 7
BITMAP
A0
A0
A0
ENDCHAR

STARTCHAR char148
ENCODING 148
SWIDTH 24 0
DWIDTH 4 0
BBX 3 3 1 7
BITMAP
A0
A0
A0
ENDCHAR

STARTCHAR char149
ENCODING 149
SWIDTH 30 0
DWIDTH 5 0
BBX 4 4 0 3
BITMAP
60
F0
F0
60
ENDCHAR

STARTCHAR char150
ENCODING 150
SWIDTH 43 0
DWIDTH 7 0
BBX 6 1 0 3
BITMAP
FC
ENDCHAR

STARTCHAR char151
ENCODING 151
SWIDTH 43 0
DWIDTH 7 0
BBX 7 1 0 4
BITMAP
FE
ENDCHAR

STARTCHAR char152
ENCODING 152
SWIDTH 0 0
DWIDTH 0 0
BBX 4 1 -2 9
BITMAP
F0
ENDCHAR

STARTCHAR char153
ENCODING 153
SWIDTH 17 0
DWIDTH 13 0
BBX 12 6 0 4
BITMAP
FC30
AA60
2660
2760
25A0
64F0
ENDCHAR

STARTCHAR char154
ENCODING 154
SWIDTH 29 0
DWIDTH 15 0
BBX 0 0 0 0
BITMAP
ENDCHAR

STARTCHAR char155
ENCODING 155
SWIDTH 30 0
DWIDTH 5 0
BBX 3 4 1 2
BITMAP
C0
60
60
80
ENDCHAR

STARTCHAR char156
ENCODING 156
SWIDTH 61 0
DWIDTH 10 0
BBX 9 8 0 0
BITMAP
7700
4900
8900
8F80
8800
8800
8880
7700
ENDCHAR

STARTCHAR char159
ENCODING 159
SWIDTH 36 0
DWIDTH 6 0
BBX 6 13 0 0
BITMAP
48
00
00
84
44
48
28
38
10
10
10
10
10
ENDCHAR

STARTCHAR char160
ENCODING 160
SWIDTH 36 0
DWIDTH 6 0
BBX 0 0 0 0
BITMAP
ENDCHAR

STARTCHAR char161
ENCODING 161
SWIDTH 18 0
DWIDTH 3 0
BBX 1 10 1 0
BITMAP
80
00
80
80
80
80
80
80
80
80
ENDCHAR

STARTCHAR char162
ENCODING 162
SWIDTH 30 0
DWIDTH 5 0
BBX 5 9 0 -1
BITMAP
70
E8
A8
A0
A0
A0
A8
70
20
ENDCHAR

STARTCHAR char163
ENCODING 163
SWIDTH 43 0
DWIDTH 7 0
BBX 6 10 0 0
BITMAP
38
44
44
40
60
F8
20
20
20
7C
ENDCHAR

STARTCHAR char164
ENCODING 164
SWIDTH 0 0
DWIDTH 0 0
BBX 2 2 0 11
BITMAP
40
80
ENDCHAR

STARTCHAR char165
ENCODING 165
SWIDTH 0 0
DWIDTH 0 0
BBX 4 2 -2 11
BITMAP
50
60
ENDCHAR

STARTCHAR char166
ENCODING 166
SWIDTH 29 0
DWIDTH 15 0
BBX 0 0 0 0
BITMAP
ENDCHAR

STARTCHAR char167
ENCODING 167
SWIDTH 43 0
DWIDTH 7 0
BBX 6 12 0 -2
BITMAP
78
48
40
60
58
44
44
2C
10
08
48
30
ENDCHAR

STARTCHAR char168
ENCODING 168
SWIDTH 0 0
DWIDTH 0 0
BBX 4 1 -2 9
BITMAP
90
ENDCHAR

STARTCHAR char169
ENCODING 169
SWIDTH 11 0
DWIDTH 12 0
BBX 10 10 0 0
BITMAP
0E00
3100
4E80
5140
9140
9040
9040
4E40
6080
1F00
ENDCHAR

STARTCHAR char170
ENCODING 170
SWIDTH 0 0
DWIDTH 0 0
BBX 4 1 -2 12
BITMAP
90
ENDCHAR

STARTCHAR char171
ENCODING 171
SWIDTH 36 0
DWIDTH 6 0
BBX 5 4 0 2
BITMAP
48
50
D0
48
ENDCHAR

STARTCHAR char172
ENCODING 172
SWIDTH 5 0
DWIDTH 11 0
BBX 9 4 0 0
BITMAP
FF80
0080
0080
0080
ENDCHAR

STARTCHAR char173
ENCODING 173
SWIDTH 29 0
DWIDTH 15 0
BBX 0 0 0 0
BITMAP
ENDCHAR

STARTCHAR char174
ENCODING 174
SWIDTH 11 0
DWIDTH 12 0
BBX 10 10 0 0
BITMAP
0E00
3100
5E80
4A40
8A40
8C40
8E40
5B40
6080
1F00
ENDCHAR

STARTCHAR char175
ENCODING 175
SWIDTH 29 0
DWIDTH 15 0
BBX 0 0 0 0
BITMAP
ENDCHAR

STARTCHAR char176
ENCODING 176
SWIDTH 36 0
DWIDTH 6 0
BBX 5 5 0 5
BITMAP
30
C8
88
48
30
ENDCHAR

STARTCHAR char177
ENCODING 177
SWIDTH 49 0
DWIDTH 8 0
BBX 7 9 0 0
BITMAP
10
10
10
FE
10
10
10
00
FE
ENDCHAR

STARTCHAR char178
ENCODING 178
SWIDTH 29 0
DWIDTH 15 0
BBX 0 0 0 0
BITMAP
ENDCHAR

STARTCHAR char179
ENCODING 179
SWIDTH 29 0
DWIDTH 15 0
BBX 0 0 0 0
BITMAP
ENDCHAR

STARTCHAR char180
ENCODING 180
SWIDTH 0 0
DWIDTH 0 0
BBX 2 2 0 8
BITMAP
C0
80
ENDCHAR

STARTCHAR char181
ENCODING 181
SWIDTH 29 0
DWIDTH 15 0
BBX 0 0 0 0
BITMAP
ENDCHAR

STARTCHAR char182
ENCODING 182
SWIDTH 61 0
DWIDTH 10 0
BBX 7 12 1 -2
BITMAP
3E
64
E4
E4
64
24
24
24
24
24
24
24
ENDCHAR

STARTCHAR char183
ENCODING 183
SWIDTH 18 0
DWIDTH 3 0
BBX 1 1 1 4
BITMAP
80
ENDCHAR

STARTCHAR char184
ENCODING 184
SWIDTH 0 0
DWIDTH 0 0
BBX 1 2 0 -3
BITMAP
80
80
ENDCHAR

STARTCHAR char186
ENCODING 186
SWIDTH 0 0
DWIDTH 0 0
BBX 4 2 -2 11
BITMAP
F0
90
ENDCHAR

STARTCHAR char187
ENCODING 187
SWIDTH 36 0
DWIDTH 6 0
BBX 5 4 0 2
BITMAP
90
48
48
90
ENDCHAR

STARTCHAR char188
ENCODING 188
SWIDTH 29 0
DWIDTH 15 0
BBX 0 0 0 0
BITMAP
ENDCHAR

STARTCHAR char191
ENCODING 191
SWIDTH 36 0
DWIDTH 6 0
BBX 4 10 1 0
BITMAP
20
00
20
20
40
40
80
90
90
70
ENDCHAR

STARTCHAR char192
ENCODING 192
SWIDTH 43 0
DWIDTH 7 0
BBX 6 13 0 0
BITMAP
40
20
00
30
30
28
28
48
48
7C
84
84
84
ENDCHAR

STARTCHAR char193
ENCODING 193
SWIDTH 43 0
DWIDTH 7 0
BBX 6 13 0 0
BITMAP
08
10
00
30
30
28
28
48
48
7C
84
84
84
ENDCHAR

STARTCHAR char194
ENCODING 194
SWIDTH 43 0
DWIDTH 7 0
BBX 6 13 0 0
BITMAP
30
48
00
30
30
28
28
48
48
7C
84
84
84
ENDCHAR

STARTCHAR char195
ENCODING 195
SWIDTH 43 0
DWIDTH 7 0
BBX 6 13 0 0
BITMAP
78
48
00
30
30
28
28
48
48
7C
84
84
84
ENDCHAR

STARTCHAR char196
ENCODING 196
SWIDTH 43 0
DWIDTH 7 0
BBX 6 13 0 0
BITMAP
48
40
00
30
30
28
28
48
48
7C
84
84
84
ENDCHAR

STARTCHAR char197
ENCODING 197
SWIDTH 43 0
DWIDTH 7 0
BBX 6 14 0 0
BITMAP
38
28
38
00
30
30
28
28
48
48
7C
84
84
84
ENDCHAR

STARTCHAR char198
ENCODING 198
SWIDTH 61 0
DWIDTH 10 0
BBX 9 10 0 0
BITMAP
1F80
1800
2800
2800
2F80
4800
7800
4800
8800
8F80
ENDCHAR

STARTCHAR char199
ENCODING 199
SWIDTH 43 0
DWIDTH 7 0
BBX 6 13 0 -3
BITMAP
3C
44
84
80
80
80
80
C4
44
38
00
10
10
ENDCHAR

STARTCHAR char200
ENCODING 200
SWIDTH 36 0
DWIDTH 6 0
BBX 5 13 1 0
BITMAP
80
40
00
F8
80
80
80
F0
80
80
80
80
F8
ENDCHAR

STARTCHAR char201
ENCODING 201
SWIDTH 36 0
DWIDTH 6 0
BBX 5 13 1 0
BITMAP
10
20
00
F8
80
80
80
F0
80
80
80
80
F8
ENDCHAR

STARTCHAR char202
ENCODING 202
SWIDTH 36 0
DWIDTH 6 0
BBX 5 13 1 0
BITMAP
60
50
00
F8
80
80
80
F0
80
80
80
80
F8
ENDCHAR

STARTCHAR char203
ENCODING 203
SWIDTH 36 0
DWIDTH 6 0
BBX 5 13 1 0
BITMAP
50
00
00
F8
80
80
80
F0
80
80
80
80
F8
ENDCHAR

STARTCHAR char204
ENCODING 204
SWIDTH 18 0
DWIDTH 3 0
BBX 3 13 -1 0
BITMAP
40
20
00
20
20
20
20
20
20
20
20
20
20
ENDCHAR

STARTCHAR char205
ENCODING 205
SWIDTH 18 0
DWIDTH 3 0
BBX 2 13 1 0
BITMAP
40
80
00
80
80
80
80
80
80
80
80
80
80
ENDCHAR

STARTCHAR char206
ENCODING 206
SWIDTH 18 0
DWIDTH 3 0
BBX 4 13 -1 0
BITMAP
70
50
00
20
20
20
20
20
20
20
20
20
20
ENDCHAR

STARTCHAR char207
ENCODING 207
SWIDTH 18 0
DWIDTH 3 0
BBX 4 13 -1 0
BITMAP
90
00
00
20
20
20
20
20
20
20
20
20
20
ENDCHAR

STARTCHAR char208
ENCODING 208
SWIDTH 29 0
DWIDTH 15 0
BBX 0 0 0 0
BITMAP
ENDCHAR

STARTCHAR char209
ENCODING 209
SWIDTH 49 0
DWIDTH 8 0
BBX 6 13 1 0
BITMAP
78
50
00
84
C4
A4
A4
A4
94
94
8C
8C
8C
ENDCHAR

STARTCHAR char210
ENCODING 210
SWIDTH 49 0
DWIDTH 8 0
BBX 7 13 0 0
BITMAP
20
10
00
3C
46
82
82
82
82
82
82
44
78
ENDCHAR

STARTCHAR char211
ENCODING 211
SWIDTH 49 0
DWIDTH 8 0
BBX 7 13 0 0
BITMAP
08
10
00
3C
46
82
82
82
82
82
82
44
78
ENDCHAR

STARTCHAR char212
ENCODING 212
SWIDTH 49 0
DWIDTH 8 0
BBX 7 13 0 0
BITMAP
38
28
00
3C
46
82
82
82
82
82
82
44
78
ENDCHAR

STARTCHAR char213
ENCODING 213
SWIDTH 49 0
DWIDTH 8 0
BBX 7 13 0 0
BITMAP
3C
48
00
3C
46
82
82
82
82
82
82
44
78
ENDCHAR

STARTCHAR char214
ENCODING 214
SWIDTH 49 0
DWIDTH 8 0
BBX 7 13 0 0
BITMAP
28
20
00
38
46
82
82
82
82
82
82
44
78
ENDCHAR

STARTCHAR char215
ENCODING 215
SWIDTH 29 0
DWIDTH 15 0
BBX 0 0 0 0
BITMAP
ENDCHAR

STARTCHAR char216
ENCODING 216
SWIDTH 49 0
DWIDTH 8 0
BBX 7 11 0 0
BITMAP
02
7E
C6
CA
8A
92
92
A2
A2
C4
B8
ENDCHAR

STARTCHAR char217
ENCODING 217
SWIDTH 49 0
DWIDTH 8 0
BBX 6 13 1 0
BITMAP
40
20
00
84
84
84
84
84
84
84
84
8C
78
ENDCHAR

STARTCHAR char218
ENCODING 218
SWIDTH 49 0
DWIDTH 8 0
BBX 6 13 1 0
BITMAP
18
20
00
84
84
84
84
84
84
84
84
8C
78
ENDCHAR

STARTCHAR char219
ENCODING 219
SWIDTH 49 0
DWIDTH 8 0
BBX 6 13 1 0
BITMAP
70
50
00
84
84
84
84
84
84
84
84
8C
78
ENDCHAR

STARTCHAR char220
ENCODING 220
SWIDTH 49 0
DWIDTH 8 0
BBX 6 13 1 0
BITMAP
50
00
00
84
84
84
84
84
84
84
84
8C
78
ENDCHAR

STARTCHAR char221
ENCODING 221
SWIDTH 29 0
DWIDTH 15 0
BBX 0 0 0 0
BITMAP
ENDCHAR

STARTCHAR char223
ENCODING 223
SWIDTH 36 0
DWIDTH 6 0
BBX 4 10 1 0
BITMAP
F0
90
90
90
A0
90
90
90
90
F0
ENDCHAR

STARTCHAR char224
ENCODING 224
SWIDTH 36 0
DWIDTH 6 0
BBX 5 10 0 0
BITMAP
40
20
70
C8
08
18
68
88
88
78
ENDCHAR

STARTCHAR char225
ENCODING 225
SWIDTH 36 0
DWIDTH 6 0
BBX 5 10 0 0
BITMAP
10
20
70
C8
08
18
68
88
88
78
ENDCHAR

STARTCHAR char226
ENCODING 226
SWIDTH 36 0
DWIDTH 6 0
BBX 5 10 0 0
BITMAP
70
48
70
C8
08
18
68
88
88
78
ENDCHAR

STARTCHAR char227
ENCODING 227
SWIDTH 36 0
DWIDTH 6 0
BBX 5 10 0 0
BITMAP
78
00
70
C8
08
18
68
88
88
78
ENDCHAR

STARTCHAR char228
ENCODING 228
SWIDTH 36 0
DWIDTH 6 0
BBX 5 10 0 0
BITMAP
58
00
70
C8
08
18
68
88
88
78
ENDCHAR

STARTCHAR char229
ENCODING 229
SWIDTH 36 0
DWIDTH 6 0
BBX 5 11 0 0
BITMAP
70
50
70
70
C8
08
18
68
88
88
78
ENDCHAR

STARTCHAR char230
ENCODING 230
SWIDTH 55 0
DWIDTH 9 0
BBX 8 8 0 0
BITMAP
76
C9
09
3F
48
88
89
76
ENDCHAR

STARTCHAR char231
ENCODING 231
SWIDTH 30 0
DWIDTH 5 0
BBX 5 11 0 -3
BITMAP
70
C8
88
80
80
80
C8
70
00
20
20
ENDCHAR

STARTCHAR char232
ENCODING 232
SWIDTH 36 0
DWIDTH 6 0
BBX 5 10 0 0
BITMAP
40
20
70
88
88
F8
80
80
C8
70
ENDCHAR

STARTCHAR char233
ENCODING 233
SWIDTH 36 0
DWIDTH 6 0
BBX 5 10 0 0
BITMAP
10
20
70
88
88
F8
80
80
C8
70
ENDCHAR

STARTCHAR char234
ENCODING 234
SWIDTH 36 0
DWIDTH 6 0
BBX 5 10 0 0
BITMAP
70
48
70
88
88
F8
80
80
C8
70
ENDCHAR

STARTCHAR char235
ENCODING 235
SWIDTH 36 0
DWIDTH 6 0
BBX 5 10 0 0
BITMAP
50
00
70
88
88
F8
80
80
C8
70
ENDCHAR

STARTCHAR char236
ENCODING 236
SWIDTH 12 0
DWIDTH 2 0
BBX 3 10 -1 0
BITMAP
40
20
20
20
20
20
20
20
20
20
ENDCHAR

STARTCHAR char237
ENCODING 237
SWIDTH 12 0
DWIDTH 2 0
BBX 2 10 1 0
BITMAP
C0
80
80
80
80
80
80
80
80
80
ENDCHAR

STARTCHAR char238
ENCODING 238
SWIDTH 12 0
DWIDTH 2 0
BBX 4 10 -1 0
BITMAP
70
90
20
20
20
20
20
20
20
20
ENDCHAR

STARTCHAR char239
ENCODING 239
SWIDTH 12 0
DWIDTH 2 0
BBX 4 10 -1 0
BITMAP
90
00
20
20
20
20
20
20
20
20
ENDCHAR

STARTCHAR char241
ENCODING 241
SWIDTH 36 0
DWIDTH 6 0
BBX 4 10 1 0
BITMAP
F0
00
E0
90
90
90
90
90
90
90
ENDCHAR

STARTCHAR char242
ENCODING 242
SWIDTH 36 0
DWIDTH 6 0
BBX 5 10 0 0
BITMAP
40
20
70
48
88
88
88
88
88
70
ENDCHAR

STARTCHAR char243
ENCODING 243
SWIDTH 36 0
DWIDTH 6 0
BBX 5 10 0 0
BITMAP
10
20
70
48
88
88
88
88
88
70
ENDCHAR

STARTCHAR char244
ENCODING 244
SWIDTH 36 0
DWIDTH 6 0
BBX 5 10 0 0
BITMAP
30
50
70
48
88
88
88
88
88
70
ENDCHAR

STARTCHAR char245
ENCODING 245
SWIDTH 36 0
DWIDTH 6 0
BBX 5 10 0 0
BITMAP
70
00
70
48
88
88
88
88
88
70
ENDCHAR

STARTCHAR char246
ENCODING 246
SWIDTH 36 0
DWIDTH 6 0
BBX 5 10 0 0
BITMAP
48
00
70
48
88
88
88
88
C8
70
ENDCHAR

STARTCHAR char247
ENCODING 247
SWIDTH 49 0
DWIDTH 8 0
BBX 7 5 0 1
BITMAP
10
00
FE
00
10
ENDCHAR

STARTCHAR char248
ENCODING 248
SWIDTH 36 0
DWIDTH 6 0
BBX 6 8 0 0
BITMAP
7C
48
98
98
A8
A8
C8
F0
ENDCHAR

STARTCHAR char249
ENCODING 249
SWIDTH 36 0
DWIDTH 6 0
BBX 4 10 1 0
BITMAP
40
40
90
90
90
90
90
90
90
70
ENDCHAR

STARTCHAR char250
ENCODING 250
SWIDTH 36 0
DWIDTH 6 0
BBX 4 10 1 0
BITMAP
20
40
90
90
90
90
90
90
90
70
ENDCHAR

STARTCHAR char251
ENCODING 251
SWIDTH 36 0
DWIDTH 6 0
BBX 4 10 1 0
BITMAP
60
90
90
90
90
90
90
90
90
70
ENDCHAR

STARTCHAR char252
ENCODING 252
SWIDTH 36 0
DWIDTH 6 0
BBX 4 10 1 0
BITMAP
50
00
90
90
90
90
90
90
90
F0
ENDCHAR

STARTCHAR char255
ENCODING 255
SWIDTH 30 0
DWIDTH 5 0
BBX 5 13 0 -3
BITMAP
50
00
88
88
C8
50
50
50
60
20
20
40
C0
ENDCHAR
ENDFONT
